<mxfile host="app.diagrams.net" modified="2022-03-31T14:39:17.235Z" agent="5.0 (Windows NT 10.0; Win64; x64) AppleWebKit/537.36 (KHTML, like Gecko) Chrome/99.0.4844.84 Safari/537.36" etag="zZ_L8AiUd894HZrvfirM" version="16.6.5" type="github">
  <diagram name="Page-1" id="0783ab3e-0a74-02c8-0abd-f7b4e66b4bec">
    <mxGraphModel dx="2285" dy="1299" grid="1" gridSize="10" guides="1" tooltips="1" connect="1" arrows="1" fold="1" page="1" pageScale="1" pageWidth="850" pageHeight="1100" background="none" math="0" shadow="0">
      <root>
        <mxCell id="0" />
        <mxCell id="1" parent="0" />
        <mxCell id="1c1d494c118603dd-1" value="ui.printString(player.attack(findSomething))" style="swimlane;html=1;childLayout=stackLayout;startSize=20;rounded=0;shadow=0;comic=0;labelBackgroundColor=none;strokeWidth=1;fontFamily=Verdana;fontSize=12;align=center;" parent="1" vertex="1">
          <mxGeometry x="-100" y="20" width="1250" height="990" as="geometry" />
        </mxCell>
        <mxCell id="1c1d494c118603dd-2" value="Enemy" style="swimlane;html=1;startSize=20;" parent="1c1d494c118603dd-1" vertex="1">
          <mxGeometry y="20" width="390" height="970" as="geometry" />
        </mxCell>
        <mxCell id="kxXblEN4KOY5F-5qo8Tu-33" value="enemyAttacks" style="rounded=1;whiteSpace=wrap;html=1;arcSize=40;fontColor=#000000;fillColor=default;strokeColor=#000000;shadow=0;labelBackgroundColor=none;comic=0;fontFamily=Verdana;fontSize=9;startSize=20;" vertex="1" parent="1c1d494c118603dd-2">
          <mxGeometry x="80" y="310" width="110" height="37" as="geometry" />
        </mxCell>
        <mxCell id="kxXblEN4KOY5F-5qo8Tu-40" value="sethealth" style="rounded=1;whiteSpace=wrap;html=1;arcSize=40;fontColor=#000000;fillColor=default;strokeColor=#000000;shadow=0;labelBackgroundColor=none;comic=0;fontFamily=Verdana;fontSize=9;startSize=20;" vertex="1" parent="1c1d494c118603dd-2">
          <mxGeometry x="310" y="380" width="150" height="24" as="geometry" />
        </mxCell>
        <mxCell id="kxXblEN4KOY5F-5qo8Tu-53" value="" style="rhombus;rounded=0;fontFamily=Helvetica;fontSize=8;fontColor=#000000;fillColor=none;gradientColor=none;html=1;shadow=0;labelBackgroundColor=none;comic=0;startSize=20;strokeColor=default;strokeWidth=1;" vertex="1" parent="1c1d494c118603dd-2">
          <mxGeometry x="110" y="380" width="50" height="50" as="geometry" />
        </mxCell>
        <mxCell id="kxXblEN4KOY5F-5qo8Tu-51" value="" style="html=1;verticalAlign=bottom;endArrow=block;rounded=0;labelBackgroundColor=default;fontFamily=Verdana;fontSize=9;fontColor=default;startSize=20;endSize=8;strokeColor=#000000;shape=connector;exitX=0.5;exitY=1;exitDx=0;exitDy=0;entryX=0.5;entryY=0;entryDx=0;entryDy=0;" edge="1" parent="1c1d494c118603dd-2" source="kxXblEN4KOY5F-5qo8Tu-33" target="kxXblEN4KOY5F-5qo8Tu-53">
          <mxGeometry width="80" relative="1" as="geometry">
            <mxPoint x="350" y="430" as="sourcePoint" />
            <mxPoint x="140" y="390" as="targetPoint" />
          </mxGeometry>
        </mxCell>
        <mxCell id="kxXblEN4KOY5F-5qo8Tu-55" value="health less || equals zero" style="text;align=center;fontStyle=1;verticalAlign=middle;spacingLeft=3;spacingRight=3;strokeColor=none;rotatable=0;points=[[0,0.5],[1,0.5]];portConstraint=eastwest;rounded=0;shadow=0;labelBackgroundColor=none;comic=0;fontFamily=Verdana;fontSize=9;fontColor=default;startSize=20;fillColor=default;html=1;" vertex="1" parent="1c1d494c118603dd-2">
          <mxGeometry x="95" y="410" width="80" height="10" as="geometry" />
        </mxCell>
        <mxCell id="kxXblEN4KOY5F-5qo8Tu-81" value="" style="edgeStyle=none;shape=connector;rounded=0;orthogonalLoop=1;jettySize=auto;html=1;labelBackgroundColor=default;fontFamily=Verdana;fontSize=9;fontColor=default;endArrow=block;startSize=20;endSize=8;strokeColor=#000000;" edge="1" parent="1c1d494c118603dd-2" source="kxXblEN4KOY5F-5qo8Tu-57" target="kxXblEN4KOY5F-5qo8Tu-80">
          <mxGeometry relative="1" as="geometry" />
        </mxCell>
        <mxCell id="kxXblEN4KOY5F-5qo8Tu-57" value="enemyDead()&lt;br&gt;remove enemy from room &amp;amp; add weapon to room inventory" style="rounded=1;whiteSpace=wrap;html=1;arcSize=40;fontColor=#000000;fillColor=default;strokeColor=#000000;shadow=0;labelBackgroundColor=none;comic=0;fontFamily=Verdana;fontSize=9;startSize=20;" vertex="1" parent="1c1d494c118603dd-2">
          <mxGeometry x="75" y="475" width="120" height="55" as="geometry" />
        </mxCell>
        <mxCell id="kxXblEN4KOY5F-5qo8Tu-56" value="true" style="html=1;verticalAlign=bottom;endArrow=block;rounded=0;labelBackgroundColor=default;fontFamily=Verdana;fontSize=9;fontColor=default;startSize=20;endSize=8;strokeColor=#000000;shape=connector;exitX=0.5;exitY=1;exitDx=0;exitDy=0;entryX=0.5;entryY=0;entryDx=0;entryDy=0;" edge="1" parent="1c1d494c118603dd-2" source="kxXblEN4KOY5F-5qo8Tu-53" target="kxXblEN4KOY5F-5qo8Tu-57">
          <mxGeometry width="80" relative="1" as="geometry">
            <mxPoint x="160" y="440" as="sourcePoint" />
            <mxPoint x="135" y="500" as="targetPoint" />
          </mxGeometry>
        </mxCell>
        <mxCell id="kxXblEN4KOY5F-5qo8Tu-54" value="false" style="html=1;verticalAlign=bottom;endArrow=block;rounded=0;labelBackgroundColor=default;fontFamily=Verdana;fontSize=9;fontColor=default;startSize=20;endSize=8;strokeColor=#000000;shape=connector;exitX=1;exitY=0.5;exitDx=0;exitDy=0;entryX=0;entryY=0.5;entryDx=0;entryDy=0;" edge="1" parent="1c1d494c118603dd-2" source="kxXblEN4KOY5F-5qo8Tu-53" target="kxXblEN4KOY5F-5qo8Tu-40">
          <mxGeometry width="80" relative="1" as="geometry">
            <mxPoint x="250" y="430" as="sourcePoint" />
            <mxPoint x="210" y="405" as="targetPoint" />
          </mxGeometry>
        </mxCell>
        <mxCell id="kxXblEN4KOY5F-5qo8Tu-79" value="" style="edgeStyle=none;shape=connector;rounded=0;orthogonalLoop=1;jettySize=auto;html=1;labelBackgroundColor=default;fontFamily=Verdana;fontSize=9;fontColor=default;endArrow=block;startSize=20;endSize=8;strokeColor=#000000;" edge="1" parent="1c1d494c118603dd-2" source="kxXblEN4KOY5F-5qo8Tu-64" target="kxXblEN4KOY5F-5qo8Tu-78">
          <mxGeometry relative="1" as="geometry" />
        </mxCell>
        <mxCell id="kxXblEN4KOY5F-5qo8Tu-64" value="attackedByPlayer()&lt;br&gt;setHealth" style="rounded=1;whiteSpace=wrap;html=1;arcSize=40;fontColor=#000000;fillColor=default;strokeColor=#000000;shadow=0;labelBackgroundColor=none;comic=0;fontFamily=Verdana;fontSize=9;startSize=20;" vertex="1" parent="1c1d494c118603dd-2">
          <mxGeometry x="240" y="440" width="140" height="50" as="geometry" />
        </mxCell>
        <mxCell id="kxXblEN4KOY5F-5qo8Tu-78" value="" style="ellipse;html=1;shape=endState;fillColor=#000000;strokeColor=#000000;rounded=0;shadow=0;labelBackgroundColor=none;comic=0;fontFamily=Verdana;fontSize=9;fontColor=default;startSize=20;" vertex="1" parent="1c1d494c118603dd-2">
          <mxGeometry x="295" y="540" width="30" height="30" as="geometry" />
        </mxCell>
        <mxCell id="kxXblEN4KOY5F-5qo8Tu-80" value="" style="ellipse;html=1;shape=endState;fillColor=#000000;strokeColor=#000000;rounded=0;shadow=0;labelBackgroundColor=none;comic=0;fontFamily=Verdana;fontSize=9;fontColor=default;startSize=20;" vertex="1" parent="1c1d494c118603dd-2">
          <mxGeometry x="120" y="570" width="30" height="30" as="geometry" />
        </mxCell>
        <mxCell id="1c1d494c118603dd-3" value="Player" style="swimlane;html=1;startSize=20;" parent="1c1d494c118603dd-1" vertex="1">
          <mxGeometry x="390" y="20" width="510" height="970" as="geometry" />
        </mxCell>
        <mxCell id="kxXblEN4KOY5F-5qo8Tu-12" value="&lt;font style=&quot;font-size: 9px&quot;&gt;false&lt;/font&gt;" style="html=1;verticalAlign=bottom;endArrow=block;rounded=0;labelBackgroundColor=default;fontFamily=Helvetica;fontSize=11;fontColor=#000000;endSize=8;strokeColor=#000000;shape=connector;exitX=0;exitY=0.5;exitDx=0;exitDy=0;entryX=1;entryY=0.5;entryDx=0;entryDy=0;" edge="1" parent="1c1d494c118603dd-3" source="kxXblEN4KOY5F-5qo8Tu-27" target="kxXblEN4KOY5F-5qo8Tu-26">
          <mxGeometry x="-0.4167" y="-11" width="80" relative="1" as="geometry">
            <mxPoint x="370" y="175" as="sourcePoint" />
            <mxPoint x="292.5" y="175" as="targetPoint" />
            <mxPoint as="offset" />
          </mxGeometry>
        </mxCell>
        <mxCell id="kxXblEN4KOY5F-5qo8Tu-17" value="&lt;span style=&quot;text-align: center&quot;&gt;&lt;font style=&quot;font-size: 9px&quot;&gt;[RangedWeapon equals zero]&lt;/font&gt;&lt;/span&gt;" style="text;strokeColor=none;fillColor=default;align=center;verticalAlign=middle;spacingLeft=3;spacingRight=3;overflow=hidden;rotatable=0;points=[[0,0.5],[1,0.5]];portConstraint=eastwest;rounded=0;fontFamily=Verdana;fontSize=9;fontColor=default;html=1;fontStyle=1;shadow=0;labelBackgroundColor=none;comic=0;startSize=20;" vertex="1" parent="1c1d494c118603dd-3">
          <mxGeometry x="243.75" y="80" width="162.5" height="14" as="geometry" />
        </mxCell>
        <mxCell id="kxXblEN4KOY5F-5qo8Tu-18" value="&lt;span style=&quot;text-align: center&quot;&gt;&lt;font style=&quot;font-size: 9px&quot;&gt;[weaponEquipped is null]&lt;/font&gt;&lt;/span&gt;" style="text;strokeColor=none;fillColor=default;align=center;verticalAlign=middle;spacingLeft=3;spacingRight=3;overflow=hidden;rotatable=0;points=[[0,0.5],[1,0.5]];portConstraint=eastwest;rounded=0;fontFamily=Verdana;fontSize=9;fontColor=default;html=1;fontStyle=1;shadow=0;labelBackgroundColor=none;comic=0;startSize=20;" vertex="1" parent="1c1d494c118603dd-3">
          <mxGeometry x="380" y="150" width="150" height="30" as="geometry" />
        </mxCell>
        <mxCell id="kxXblEN4KOY5F-5qo8Tu-23" value="&lt;font style=&quot;font-size: 9px&quot;&gt;[weaponEquipped instanceof MeleeWeapon]&lt;/font&gt;" style="text;align=center;fontStyle=1;verticalAlign=middle;spacingLeft=3;spacingRight=3;strokeColor=none;rotatable=0;points=[[0,0.5],[1,0.5]];portConstraint=eastwest;rounded=0;fontFamily=Verdana;fontSize=9;fontColor=default;fillColor=default;gradientColor=none;html=1;shadow=0;labelBackgroundColor=none;comic=0;startSize=20;" vertex="1" parent="1c1d494c118603dd-3">
          <mxGeometry x="10" y="80" width="230" height="16" as="geometry" />
        </mxCell>
        <mxCell id="kxXblEN4KOY5F-5qo8Tu-26" value="" style="rhombus;rounded=0;fontFamily=Helvetica;fontSize=8;fontColor=#000000;fillColor=none;gradientColor=none;html=1;" vertex="1" parent="1c1d494c118603dd-3">
          <mxGeometry x="300" y="100" width="50" height="50" as="geometry" />
        </mxCell>
        <mxCell id="kxXblEN4KOY5F-5qo8Tu-27" value="" style="rhombus;rounded=0;fontFamily=Helvetica;fontSize=8;fontColor=#000000;fillColor=none;gradientColor=none;html=1;" vertex="1" parent="1c1d494c118603dd-3">
          <mxGeometry x="430" y="100" width="50" height="50" as="geometry" />
        </mxCell>
        <mxCell id="kxXblEN4KOY5F-5qo8Tu-28" value="" style="rhombus;rounded=0;fontFamily=Helvetica;fontSize=8;fontColor=#000000;fillColor=none;gradientColor=none;html=1;" vertex="1" parent="1c1d494c118603dd-3">
          <mxGeometry x="100" y="100" width="50" height="50" as="geometry" />
        </mxCell>
        <mxCell id="kxXblEN4KOY5F-5qo8Tu-21" value="&lt;font style=&quot;font-size: 9px&quot;&gt;false&lt;/font&gt;" style="html=1;verticalAlign=bottom;endArrow=block;rounded=0;labelBackgroundColor=default;fontFamily=Helvetica;fontSize=6;fontColor=#000000;endSize=8;strokeColor=#000000;shape=connector;exitX=0;exitY=0.5;exitDx=0;exitDy=0;entryX=1;entryY=0.5;entryDx=0;entryDy=0;" edge="1" parent="1c1d494c118603dd-3" source="kxXblEN4KOY5F-5qo8Tu-26" target="kxXblEN4KOY5F-5qo8Tu-28">
          <mxGeometry width="80" relative="1" as="geometry">
            <mxPoint x="197.5" y="175" as="sourcePoint" />
            <mxPoint x="120" y="175" as="targetPoint" />
          </mxGeometry>
        </mxCell>
        <mxCell id="kxXblEN4KOY5F-5qo8Tu-29" value="" style="rhombus;rounded=0;fontFamily=Helvetica;fontSize=8;fontColor=#000000;fillColor=none;gradientColor=none;html=1;" vertex="1" parent="1c1d494c118603dd-3">
          <mxGeometry x="100" y="230" width="50" height="50" as="geometry" />
        </mxCell>
        <mxCell id="kxXblEN4KOY5F-5qo8Tu-24" value="&lt;font style=&quot;font-size: 9px&quot;&gt;true&lt;/font&gt;" style="html=1;verticalAlign=bottom;endArrow=block;rounded=0;labelBackgroundColor=default;fontFamily=Helvetica;fontSize=8;fontColor=#000000;endSize=8;strokeColor=#000000;shape=connector;exitX=0.5;exitY=1;exitDx=0;exitDy=0;entryX=0.5;entryY=0;entryDx=0;entryDy=0;" edge="1" parent="1c1d494c118603dd-3" source="kxXblEN4KOY5F-5qo8Tu-28" target="kxXblEN4KOY5F-5qo8Tu-29">
          <mxGeometry x="-0.3295" y="13" width="80" relative="1" as="geometry">
            <mxPoint x="70" y="209.9999999999999" as="sourcePoint" />
            <mxPoint x="135" y="260" as="targetPoint" />
            <mxPoint as="offset" />
          </mxGeometry>
        </mxCell>
        <mxCell id="kxXblEN4KOY5F-5qo8Tu-30" value="" style="rhombus;rounded=0;fontFamily=Helvetica;fontSize=8;fontColor=#000000;fillColor=none;gradientColor=none;html=1;" vertex="1" parent="1c1d494c118603dd-3">
          <mxGeometry x="10" y="100" width="50" height="50" as="geometry" />
        </mxCell>
        <mxCell id="kxXblEN4KOY5F-5qo8Tu-31" value="false" style="html=1;verticalAlign=bottom;endArrow=block;rounded=0;labelBackgroundColor=default;fontFamily=Verdana;fontSize=9;fontColor=default;startSize=20;endSize=8;strokeColor=#000000;shape=connector;exitX=0;exitY=0.5;exitDx=0;exitDy=0;entryX=1;entryY=0.5;entryDx=0;entryDy=0;" edge="1" parent="1c1d494c118603dd-3" source="kxXblEN4KOY5F-5qo8Tu-28" target="kxXblEN4KOY5F-5qo8Tu-30">
          <mxGeometry y="-5" width="80" relative="1" as="geometry">
            <mxPoint x="40" y="350" as="sourcePoint" />
            <mxPoint x="120" y="350" as="targetPoint" />
            <mxPoint as="offset" />
          </mxGeometry>
        </mxCell>
        <mxCell id="kxXblEN4KOY5F-5qo8Tu-36" value="setAvailableUses" style="rounded=1;whiteSpace=wrap;html=1;arcSize=40;fontColor=#000000;fillColor=default;strokeColor=#000000;shadow=0;labelBackgroundColor=none;comic=0;fontFamily=Verdana;fontSize=9;startSize=20;" vertex="1" parent="1c1d494c118603dd-3">
          <mxGeometry x="20" y="30" width="90" height="20" as="geometry" />
        </mxCell>
        <mxCell id="kxXblEN4KOY5F-5qo8Tu-35" value="false" style="html=1;verticalAlign=bottom;endArrow=block;rounded=0;labelBackgroundColor=default;fontFamily=Verdana;fontSize=9;fontColor=default;startSize=20;endSize=8;strokeColor=#000000;shape=connector;" edge="1" parent="1c1d494c118603dd-3" source="kxXblEN4KOY5F-5qo8Tu-30" target="kxXblEN4KOY5F-5qo8Tu-36">
          <mxGeometry x="-0.2379" y="15" width="80" relative="1" as="geometry">
            <mxPoint x="-10" y="230" as="sourcePoint" />
            <mxPoint x="40" y="200" as="targetPoint" />
            <mxPoint as="offset" />
          </mxGeometry>
        </mxCell>
        <mxCell id="kxXblEN4KOY5F-5qo8Tu-32" value="[availableUses equals zero]" style="text;align=center;fontStyle=1;verticalAlign=middle;spacingLeft=3;spacingRight=3;strokeColor=none;rotatable=0;points=[[0,0.5],[1,0.5]];portConstraint=eastwest;rounded=0;shadow=0;labelBackgroundColor=none;comic=0;fontFamily=Verdana;fontSize=9;fontColor=default;startSize=20;fillColor=default;html=1;" vertex="1" parent="1c1d494c118603dd-3">
          <mxGeometry x="-10" y="150" width="80" height="16" as="geometry" />
        </mxCell>
        <mxCell id="kxXblEN4KOY5F-5qo8Tu-37" value="[damage less than 0]" style="text;align=center;fontStyle=1;verticalAlign=middle;spacingLeft=3;spacingRight=3;strokeColor=none;rotatable=0;points=[[0,0.5],[1,0.5]];portConstraint=eastwest;rounded=0;shadow=0;labelBackgroundColor=none;comic=0;fontFamily=Verdana;fontSize=9;fontColor=default;startSize=20;fillColor=default;html=1;" vertex="1" parent="1c1d494c118603dd-3">
          <mxGeometry x="85" y="280" width="80" height="6" as="geometry" />
        </mxCell>
        <mxCell id="kxXblEN4KOY5F-5qo8Tu-42" value="youHitYourself" style="rounded=1;whiteSpace=wrap;html=1;arcSize=40;fontColor=#000000;fillColor=default;strokeColor=#000000;shadow=0;labelBackgroundColor=none;comic=0;fontFamily=Verdana;fontSize=9;startSize=20;" vertex="1" parent="1c1d494c118603dd-3">
          <mxGeometry x="10" y="214" width="90" height="30" as="geometry" />
        </mxCell>
        <mxCell id="kxXblEN4KOY5F-5qo8Tu-46" value="" style="rhombus;rounded=0;fontFamily=Helvetica;fontSize=8;fontColor=#000000;fillColor=none;gradientColor=none;html=1;" vertex="1" parent="1c1d494c118603dd-3">
          <mxGeometry x="240" y="230" width="50" height="50" as="geometry" />
        </mxCell>
        <mxCell id="kxXblEN4KOY5F-5qo8Tu-47" value="[enemy name equals userinput]" style="text;align=center;fontStyle=1;verticalAlign=middle;spacingLeft=3;spacingRight=3;strokeColor=none;rotatable=0;points=[[0,0.5],[1,0.5]];portConstraint=eastwest;rounded=0;shadow=0;labelBackgroundColor=none;comic=0;fontFamily=Verdana;fontSize=9;fontColor=default;startSize=20;fillColor=default;html=1;" vertex="1" parent="1c1d494c118603dd-3">
          <mxGeometry x="225" y="214" width="80" height="16" as="geometry" />
        </mxCell>
        <mxCell id="kxXblEN4KOY5F-5qo8Tu-38" value="false" style="html=1;verticalAlign=bottom;endArrow=block;rounded=0;labelBackgroundColor=default;fontFamily=Verdana;fontSize=9;fontColor=default;startSize=20;endSize=8;strokeColor=#000000;shape=connector;exitX=1;exitY=0.5;exitDx=0;exitDy=0;entryX=0;entryY=0.5;entryDx=0;entryDy=0;" edge="1" parent="1c1d494c118603dd-3" source="kxXblEN4KOY5F-5qo8Tu-29" target="kxXblEN4KOY5F-5qo8Tu-46">
          <mxGeometry width="80" relative="1" as="geometry">
            <mxPoint x="190" y="260" as="sourcePoint" />
            <mxPoint x="220" y="255" as="targetPoint" />
          </mxGeometry>
        </mxCell>
        <mxCell id="kxXblEN4KOY5F-5qo8Tu-69" value="" style="rhombus;rounded=0;fontFamily=Helvetica;fontSize=8;fontColor=#000000;fillColor=none;gradientColor=none;html=1;" vertex="1" parent="1c1d494c118603dd-3">
          <mxGeometry x="270" y="320" width="50" height="50" as="geometry" />
        </mxCell>
        <mxCell id="kxXblEN4KOY5F-5qo8Tu-68" value="false" style="html=1;verticalAlign=bottom;endArrow=block;rounded=0;labelBackgroundColor=default;fontFamily=Verdana;fontSize=9;fontColor=default;startSize=20;endSize=8;strokeColor=#000000;shape=connector;exitX=1;exitY=0.5;exitDx=0;exitDy=0;entryX=0.5;entryY=0;entryDx=0;entryDy=0;" edge="1" parent="1c1d494c118603dd-3" source="kxXblEN4KOY5F-5qo8Tu-46" target="kxXblEN4KOY5F-5qo8Tu-69">
          <mxGeometry width="80" relative="1" as="geometry">
            <mxPoint x="250" y="470" as="sourcePoint" />
            <mxPoint x="290" y="320" as="targetPoint" />
          </mxGeometry>
        </mxCell>
        <mxCell id="kxXblEN4KOY5F-5qo8Tu-71" value="[enemyName equals zero]" style="text;align=center;fontStyle=1;verticalAlign=middle;spacingLeft=3;spacingRight=3;strokeColor=none;rotatable=0;points=[[0,0.5],[1,0.5]];portConstraint=eastwest;rounded=0;shadow=0;labelBackgroundColor=none;comic=0;fontFamily=Verdana;fontSize=9;fontColor=default;startSize=20;fillColor=default;html=1;" vertex="1" parent="1c1d494c118603dd-3">
          <mxGeometry x="330" y="310" width="80" height="26" as="geometry" />
        </mxCell>
        <mxCell id="kxXblEN4KOY5F-5qo8Tu-77" value="" style="edgeStyle=none;shape=connector;rounded=0;orthogonalLoop=1;jettySize=auto;html=1;labelBackgroundColor=default;fontFamily=Verdana;fontSize=9;fontColor=default;endArrow=block;startSize=20;endSize=8;strokeColor=#000000;" edge="1" parent="1c1d494c118603dd-3" source="kxXblEN4KOY5F-5qo8Tu-75" target="kxXblEN4KOY5F-5qo8Tu-76">
          <mxGeometry relative="1" as="geometry" />
        </mxCell>
        <mxCell id="kxXblEN4KOY5F-5qo8Tu-75" value="no enemy in the room" style="rounded=1;whiteSpace=wrap;html=1;arcSize=40;fontColor=#000000;fillColor=default;strokeColor=#000000;shadow=0;labelBackgroundColor=none;comic=0;fontFamily=Verdana;fontSize=9;startSize=20;" vertex="1" parent="1c1d494c118603dd-3">
          <mxGeometry x="237.5" y="400" width="115" height="15" as="geometry" />
        </mxCell>
        <mxCell id="kxXblEN4KOY5F-5qo8Tu-74" value="false" style="html=1;verticalAlign=bottom;endArrow=block;rounded=0;labelBackgroundColor=default;fontFamily=Verdana;fontSize=9;fontColor=default;startSize=20;endSize=8;strokeColor=#000000;shape=connector;exitX=0.5;exitY=1;exitDx=0;exitDy=0;" edge="1" parent="1c1d494c118603dd-3" source="kxXblEN4KOY5F-5qo8Tu-69" target="kxXblEN4KOY5F-5qo8Tu-75">
          <mxGeometry width="80" relative="1" as="geometry">
            <mxPoint x="290" y="380" as="sourcePoint" />
            <mxPoint x="295" y="420" as="targetPoint" />
          </mxGeometry>
        </mxCell>
        <mxCell id="kxXblEN4KOY5F-5qo8Tu-76" value="" style="ellipse;html=1;shape=endState;fillColor=#000000;strokeColor=#000000;rounded=0;shadow=0;labelBackgroundColor=none;comic=0;fontFamily=Verdana;fontSize=9;fontColor=default;startSize=20;" vertex="1" parent="1c1d494c118603dd-3">
          <mxGeometry x="280" y="480" width="30" height="30" as="geometry" />
        </mxCell>
        <mxCell id="1c1d494c118603dd-4" value="Gameengine" style="swimlane;html=1;startSize=20;" parent="1c1d494c118603dd-1" vertex="1">
          <mxGeometry x="900" y="20" width="350" height="970" as="geometry" />
        </mxCell>
        <mxCell id="kxXblEN4KOY5F-5qo8Tu-2" value="" style="edgeStyle=orthogonalEdgeStyle;html=1;verticalAlign=bottom;endArrow=open;endSize=8;strokeColor=#000000;rounded=0;entryX=0.553;entryY=0.043;entryDx=0;entryDy=0;entryPerimeter=0;" edge="1" parent="1c1d494c118603dd-4" target="kxXblEN4KOY5F-5qo8Tu-5">
          <mxGeometry relative="1" as="geometry">
            <mxPoint x="125" y="90" as="targetPoint" />
            <mxPoint x="175" y="50" as="sourcePoint" />
          </mxGeometry>
        </mxCell>
        <mxCell id="kxXblEN4KOY5F-5qo8Tu-5" value="&lt;font style=&quot;font-size: 9px&quot;&gt;userinput&lt;/font&gt;" style="rounded=1;whiteSpace=wrap;html=1;arcSize=40;fontColor=#000000;fillColor=default;strokeColor=#000000;fontFamily=Helvetica;fontSize=11;" vertex="1" parent="1c1d494c118603dd-4">
          <mxGeometry x="100" y="90" width="135" height="30" as="geometry" />
        </mxCell>
        <mxCell id="kxXblEN4KOY5F-5qo8Tu-25" value="" style="ellipse;fillColor=#000000;strokeColor=none;rounded=0;fontFamily=Helvetica;fontSize=8;fontColor=#000000;html=1;" vertex="1" parent="1c1d494c118603dd-4">
          <mxGeometry x="160" y="20" width="30" height="30" as="geometry" />
        </mxCell>
        <mxCell id="kxXblEN4KOY5F-5qo8Tu-9" value="" style="edgeStyle=orthogonalEdgeStyle;shape=connector;rounded=0;orthogonalLoop=1;jettySize=auto;html=1;labelBackgroundColor=default;fontFamily=Helvetica;fontSize=11;fontColor=#000000;endArrow=open;endSize=8;strokeColor=#000000;entryX=0.5;entryY=0;entryDx=0;entryDy=0;" edge="1" parent="1c1d494c118603dd-1" source="kxXblEN4KOY5F-5qo8Tu-5" target="kxXblEN4KOY5F-5qo8Tu-27">
          <mxGeometry relative="1" as="geometry">
            <mxPoint x="660.0285714285715" y="160.0250000000002" as="targetPoint" />
          </mxGeometry>
        </mxCell>
        <mxCell id="kxXblEN4KOY5F-5qo8Tu-11" value="&lt;font style=&quot;font-size: 9px&quot;&gt;true&lt;/font&gt;" style="html=1;verticalAlign=bottom;endArrow=block;rounded=0;labelBackgroundColor=default;fontFamily=Helvetica;fontSize=11;fontColor=#000000;endSize=8;strokeColor=#000000;shape=connector;entryX=0.5;entryY=1;entryDx=0;entryDy=0;exitX=1;exitY=0.5;exitDx=0;exitDy=0;" edge="1" parent="1c1d494c118603dd-1" source="kxXblEN4KOY5F-5qo8Tu-27" target="kxXblEN4KOY5F-5qo8Tu-5">
          <mxGeometry x="-0.3173" y="-22" width="80" relative="1" as="geometry">
            <mxPoint x="700" y="195" as="sourcePoint" />
            <mxPoint x="560" y="220" as="targetPoint" />
            <Array as="points">
              <mxPoint x="960" y="170" />
            </Array>
            <mxPoint as="offset" />
          </mxGeometry>
        </mxCell>
        <mxCell id="kxXblEN4KOY5F-5qo8Tu-34" value="true" style="html=1;verticalAlign=bottom;endArrow=block;rounded=0;labelBackgroundColor=default;fontFamily=Verdana;fontSize=9;fontColor=default;startSize=20;endSize=8;strokeColor=#000000;shape=connector;exitX=0;exitY=0.5;exitDx=0;exitDy=0;entryX=0.5;entryY=0;entryDx=0;entryDy=0;" edge="1" parent="1c1d494c118603dd-1" source="kxXblEN4KOY5F-5qo8Tu-30" target="kxXblEN4KOY5F-5qo8Tu-33">
          <mxGeometry x="0.3926" y="-9" width="80" relative="1" as="geometry">
            <mxPoint x="240" y="250" as="sourcePoint" />
            <mxPoint x="320" y="250" as="targetPoint" />
            <mxPoint as="offset" />
          </mxGeometry>
        </mxCell>
        <mxCell id="kxXblEN4KOY5F-5qo8Tu-20" value="&lt;font style=&quot;font-size: 9px&quot;&gt;true&lt;/font&gt;" style="html=1;verticalAlign=bottom;endArrow=block;rounded=0;labelBackgroundColor=default;fontFamily=Helvetica;fontSize=6;fontColor=#000000;endSize=8;strokeColor=#000000;shape=connector;exitX=0.5;exitY=1;exitDx=0;exitDy=0;entryX=0.75;entryY=0;entryDx=0;entryDy=0;" edge="1" parent="1c1d494c118603dd-1" source="kxXblEN4KOY5F-5qo8Tu-26" target="kxXblEN4KOY5F-5qo8Tu-33">
          <mxGeometry x="0.25" y="-5" width="80" relative="1" as="geometry">
            <mxPoint x="495" y="230" as="sourcePoint" />
            <mxPoint x="495" y="300" as="targetPoint" />
            <Array as="points">
              <mxPoint x="330" y="220" />
            </Array>
            <mxPoint as="offset" />
          </mxGeometry>
        </mxCell>
        <mxCell id="kxXblEN4KOY5F-5qo8Tu-44" value="" style="edgeStyle=none;shape=connector;rounded=0;orthogonalLoop=1;jettySize=auto;html=1;labelBackgroundColor=default;fontFamily=Verdana;fontSize=9;fontColor=default;endArrow=block;startSize=20;endSize=8;strokeColor=#000000;entryX=1;entryY=0.5;entryDx=0;entryDy=0;" edge="1" parent="1c1d494c118603dd-1" source="kxXblEN4KOY5F-5qo8Tu-42" target="kxXblEN4KOY5F-5qo8Tu-33">
          <mxGeometry relative="1" as="geometry" />
        </mxCell>
        <mxCell id="kxXblEN4KOY5F-5qo8Tu-49" value="true" style="html=1;verticalAlign=bottom;endArrow=block;rounded=0;labelBackgroundColor=default;fontFamily=Verdana;fontSize=9;fontColor=default;startSize=20;endSize=8;strokeColor=#000000;shape=connector;exitX=0.5;exitY=1;exitDx=0;exitDy=0;entryX=1;entryY=0.75;entryDx=0;entryDy=0;" edge="1" parent="1c1d494c118603dd-1" source="kxXblEN4KOY5F-5qo8Tu-46" target="kxXblEN4KOY5F-5qo8Tu-33">
          <mxGeometry x="0.0906" y="-12" width="80" relative="1" as="geometry">
            <mxPoint x="530" y="420" as="sourcePoint" />
            <mxPoint x="410" y="350" as="targetPoint" />
            <mxPoint as="offset" />
          </mxGeometry>
        </mxCell>
        <mxCell id="kxXblEN4KOY5F-5qo8Tu-39" value="" style="edgeStyle=none;shape=connector;rounded=0;orthogonalLoop=1;jettySize=auto;html=1;labelBackgroundColor=default;fontFamily=Verdana;fontSize=9;fontColor=default;endArrow=block;startSize=20;endSize=8;strokeColor=#000000;exitX=0;exitY=0.5;exitDx=0;exitDy=0;entryX=0.75;entryY=0;entryDx=0;entryDy=0;" edge="1" parent="1c1d494c118603dd-1" source="kxXblEN4KOY5F-5qo8Tu-29" target="kxXblEN4KOY5F-5qo8Tu-40">
          <mxGeometry relative="1" as="geometry">
            <mxPoint x="310" y="275" as="targetPoint" />
          </mxGeometry>
        </mxCell>
        <mxCell id="kxXblEN4KOY5F-5qo8Tu-43" value="" style="edgeStyle=none;shape=connector;rounded=0;orthogonalLoop=1;jettySize=auto;html=1;labelBackgroundColor=default;fontFamily=Verdana;fontSize=9;fontColor=default;endArrow=block;startSize=20;endSize=8;strokeColor=#000000;" edge="1" parent="1c1d494c118603dd-1" source="kxXblEN4KOY5F-5qo8Tu-40" target="kxXblEN4KOY5F-5qo8Tu-42">
          <mxGeometry relative="1" as="geometry" />
        </mxCell>
        <mxCell id="kxXblEN4KOY5F-5qo8Tu-63" value="true" style="html=1;verticalAlign=bottom;endArrow=block;rounded=0;labelBackgroundColor=default;fontFamily=Verdana;fontSize=9;fontColor=default;startSize=20;endSize=8;strokeColor=#000000;shape=connector;exitX=0.5;exitY=1;exitDx=0;exitDy=0;entryX=1;entryY=0.5;entryDx=0;entryDy=0;" edge="1" parent="1c1d494c118603dd-1" source="kxXblEN4KOY5F-5qo8Tu-46" target="kxXblEN4KOY5F-5qo8Tu-64">
          <mxGeometry width="80" relative="1" as="geometry">
            <mxPoint x="460" y="430" as="sourcePoint" />
            <mxPoint x="470" y="470" as="targetPoint" />
            <Array as="points">
              <mxPoint x="480" y="450" />
            </Array>
          </mxGeometry>
        </mxCell>
        <mxCell id="kxXblEN4KOY5F-5qo8Tu-65" value="" style="edgeStyle=none;shape=connector;rounded=0;orthogonalLoop=1;jettySize=auto;html=1;labelBackgroundColor=default;fontFamily=Verdana;fontSize=9;fontColor=default;endArrow=block;startSize=20;endSize=8;strokeColor=#000000;entryX=1;entryY=0.5;entryDx=0;entryDy=0;exitX=0;exitY=0.5;exitDx=0;exitDy=0;" edge="1" parent="1c1d494c118603dd-1" source="kxXblEN4KOY5F-5qo8Tu-29" target="kxXblEN4KOY5F-5qo8Tu-33">
          <mxGeometry relative="1" as="geometry">
            <mxPoint x="416.5577889447236" y="274" as="sourcePoint" />
            <mxPoint x="200" y="358.5" as="targetPoint" />
          </mxGeometry>
        </mxCell>
        <mxCell id="kxXblEN4KOY5F-5qo8Tu-72" value="" style="html=1;verticalAlign=bottom;endArrow=block;rounded=0;labelBackgroundColor=default;fontFamily=Verdana;fontSize=9;fontColor=default;startSize=20;endSize=8;strokeColor=#000000;shape=connector;exitX=0;exitY=0.5;exitDx=0;exitDy=0;" edge="1" parent="1c1d494c118603dd-1" source="kxXblEN4KOY5F-5qo8Tu-69">
          <mxGeometry width="80" relative="1" as="geometry">
            <mxPoint x="640" y="490" as="sourcePoint" />
            <mxPoint x="380" y="470" as="targetPoint" />
            <Array as="points">
              <mxPoint x="540" y="440" />
            </Array>
          </mxGeometry>
        </mxCell>
        <mxCell id="kxXblEN4KOY5F-5qo8Tu-73" value="" style="html=1;verticalAlign=bottom;endArrow=block;rounded=0;labelBackgroundColor=default;fontFamily=Verdana;fontSize=9;fontColor=default;startSize=20;endSize=8;strokeColor=#000000;shape=connector;exitX=0;exitY=0.5;exitDx=0;exitDy=0;" edge="1" parent="1c1d494c118603dd-1" source="kxXblEN4KOY5F-5qo8Tu-69" target="kxXblEN4KOY5F-5qo8Tu-33">
          <mxGeometry width="80" relative="1" as="geometry">
            <mxPoint x="670" y="375" as="sourcePoint" />
            <mxPoint x="390" y="480" as="targetPoint" />
            <Array as="points">
              <mxPoint x="510" y="375" />
            </Array>
          </mxGeometry>
        </mxCell>
      </root>
    </mxGraphModel>
  </diagram>
</mxfile>
